<?xml version="1.0" encoding="UTF-8"?>
<svg width="800" height="800" viewBox="0 0 800 800" xmlns="http://www.w3.org/2000/svg">
  <!-- Coffee cup -->
  <g stroke="black" fill="none" stroke-width="2">
    <!-- Main cup -->
    <path d="M300 400 C300 500, 500 500, 500 400 L480 250 C480 200, 320 200, 320 250 L300 400" />
    <!-- Handle -->
    <path d="M500 350 C550 350, 550 300, 500 300" />
    <!-- Steam lines -->
    <path d="M350 200 C350 150, 380 150, 380 100" stroke-width="1" />
    <path d="M400 200 C400 150, 370 150, 370 100" stroke-width="1" />
    <path d="M450 200 C450 150, 420 150, 420 100" stroke-width="1" />
  </g>
  
  <!-- Coffee beans -->
  <g stroke="black" fill="none" stroke-width="1">
    <path d="M200 500 C180 480, 180 460, 200 440 C220 420, 240 420, 260 440 C280 460, 280 480, 260 500 C240 520, 220 520, 200 500" />
    <path d="M600 300 C580 280, 580 260, 600 240 C620 220, 640 220, 660 240 C680 260, 680 280, 660 300 C640 320, 620 320, 600 300" />
    <path d="M500 600 C480 580, 480 560, 500 540 C520 520, 540 520, 560 540 C580 560, 580 580, 560 600 C540 620, 520 620, 500 600" />
  </g>
  
  <!-- Decorative stars -->
  <g stroke="black" stroke-width="1">
    <path d="M150 150 L160 150 L155 140 L150 150 L155 160 L160 150" />
    <path d="M650 450 L660 450 L655 440 L650 450 L655 460 L660 450" />
    <path d="M400 650 L410 650 L405 640 L400 650 L405 660 L410 650" />
  </g>
</svg> 